<svg width="80" height="80" viewBox="0 0 80 80" fill="none" xmlns="http://www.w3.org/2000/svg">
<circle cx="40" cy="40" r="40" fill="#05C0F4"/>
<path d="M65.8076 61.878L60.4612 56.5317C61.8954 54.8829 62.7637 52.7317 62.7637 50.3805C62.7637 45.2049 58.5539 41 53.3832 41C48.2076 41 44.0027 45.2098 44.0027 50.3805C44.0027 55.5512 48.2124 59.761 53.3832 59.761C55.7344 59.761 57.8856 58.8927 59.5344 57.4585L64.8807 62.8049C65.0076 62.9317 65.1783 63 65.3442 63C65.51 63 65.6807 62.9366 65.8076 62.8049C66.0612 62.5512 66.0612 62.1317 65.8076 61.878ZM45.3149 50.3805C45.3149 45.9317 48.9344 42.3171 53.3783 42.3171C57.8271 42.3171 61.4417 45.9366 61.4417 50.3805C61.4417 54.8244 57.8271 58.4488 53.3783 58.4488C48.9344 58.4488 45.3149 54.8293 45.3149 50.3805Z" fill="white"/>
<path d="M30.1211 28.9102H31.8789V30.668H30.1211V28.9102Z" fill="white"/>
<path d="M30.1211 32.4258H31.8789V34.1836H30.1211V32.4258Z" fill="white"/>
<path d="M46 23.8433L35.5115 21H26.4885L16 23.8433V32.4258H21.332V51H40.668V32.4258H46V23.8433ZM34.4044 22.7578C34.0131 24.2724 32.6351 25.3945 31 25.3945C29.3649 25.3945 27.9869 24.2724 27.5956 22.7578H34.4044ZM44.2422 30.668H40.668V27.1523H38.9102V49.2422H23.0898V27.1523H21.332V30.668H17.7578V25.188L25.8459 22.9954C26.3596 25.3687 28.4753 27.1523 31 27.1523C33.5247 27.1523 35.6404 25.3687 36.1541 22.9954L44.2422 25.188V30.668Z" fill="white"/>
</svg>
