<svg width="80" height="80" viewBox="0 0 80 80" fill="none" xmlns="http://www.w3.org/2000/svg">
<circle cx="40" cy="40" r="40" fill="#05C0F4"/>
<path d="M57.8707 54.6391L53.036 39.1925C53.5695 38.8943 53.9347 38.3309 53.9347 37.6777C53.9347 36.9689 53.5072 36.3597 52.8982 36.0881L54.3597 30.2418C54.4629 29.8298 54.5153 29.406 54.5153 28.9804V28.4888C54.5153 27.0678 53.5208 25.8799 52.1928 25.5697V22.0006H51.0315V25.5241C49.9984 25.6888 49.1201 26.3769 48.7217 27.3732L48.709 27.4058L48.6962 27.3732C48.2979 26.3769 47.4193 25.6888 46.3865 25.5241V22.0006H45.2252V25.5692C43.8972 25.8799 42.9027 27.0673 42.9027 28.4882C42.9027 29.2384 42.9948 29.9886 43.1774 30.7178L44.5195 36.0881C43.9105 36.3597 43.4833 36.9689 43.4833 37.6777C43.4833 38.3309 43.8485 38.8943 44.382 39.1925L39.547 54.6391C39.2261 55.6652 39.5153 56.7709 40.3026 57.525C40.3077 57.5301 40.3136 57.5355 40.3193 57.54C40.645 57.8448 41.0689 57.9976 41.4927 57.9976C41.9231 57.9976 42.3532 57.8403 42.6807 57.5261L42.9114 57.3056C43.1204 57.1046 43.4728 57.1051 43.6817 57.305L43.9122 57.5261C44.5677 58.1544 45.6346 58.1544 46.2901 57.5261L46.52 57.3056C46.7289 57.1046 47.0813 57.1051 47.2906 57.305L47.5211 57.5261C48.1766 58.1544 49.2426 58.1544 49.898 57.5261L50.1285 57.305C50.3369 57.1051 50.6902 57.1051 50.8986 57.305L51.129 57.5261C51.784 58.1555 52.8505 58.1544 53.506 57.5261L53.7365 57.3056C53.9457 57.1046 54.2982 57.1051 54.5071 57.305L54.7376 57.5261C55.388 58.1493 56.4424 58.1538 57.0984 57.5412C57.1044 57.5355 57.1106 57.5301 57.116 57.525C57.9027 56.7709 58.1925 55.6652 57.8707 54.6391ZM45.2252 38.2584C44.9051 38.2584 44.6446 37.9984 44.6446 37.6777C44.6446 37.3573 44.9051 37.0971 45.2252 37.0971H52.1928C52.5126 37.0971 52.7734 37.3573 52.7734 37.6777C52.7734 37.9984 52.5126 38.2584 52.1928 38.2584H45.2252ZM44.0639 28.4888C44.0639 27.4727 44.8906 26.6457 45.9068 26.6457C46.6651 26.6457 47.3362 27.1004 47.618 27.8041L48.17 29.1837C48.2585 29.4043 48.4714 29.5488 48.709 29.5488C48.9463 29.5488 49.1595 29.4043 49.2477 29.1837L49.7999 27.8041C50.0815 27.1004 50.7534 26.6457 51.5109 26.6457C52.527 26.6457 53.3541 27.4727 53.3541 28.4888V28.9804C53.3541 29.311 53.3132 29.6407 53.2333 29.9605L51.7392 35.9358H45.6785L44.3038 30.4368C44.1444 29.7998 44.0639 29.1443 44.0639 28.4888ZM42.1077 56.4664L41.8766 56.6878C41.6677 56.888 41.3158 56.888 41.1072 56.6878C41.1032 56.6835 41.0987 56.6796 41.0944 56.6756C40.6363 56.2285 40.4681 55.5827 40.655 54.9859L45.5271 39.4196H46.2586L42.9353 56.0363C42.6319 56.1001 42.3436 56.2413 42.1077 56.4664ZM45.7157 56.4664L45.4857 56.6878C45.2768 56.8874 44.9244 56.8874 44.716 56.6878L44.4849 56.4658C44.3659 56.3521 44.2301 56.2656 44.0883 56.1931L47.4431 39.4196H48.1284V56.5001L48.0929 56.4664C47.4386 55.8384 46.372 55.8384 45.7157 56.4664ZM52.702 56.6878C52.4936 56.8885 52.1418 56.8874 51.9325 56.6878L51.7015 56.4658C51.046 55.839 49.98 55.8384 49.3251 56.4664L49.2896 56.5001V39.4196H49.9746L53.3297 56.1936C53.1879 56.2662 53.0521 56.3527 52.933 56.4672L52.702 56.6878ZM56.3238 56.6756C56.3193 56.6796 56.3148 56.6841 56.3105 56.6878C56.1016 56.8868 55.7492 56.8868 55.5414 56.6878L55.3103 56.4658C55.075 56.2407 54.7858 56.0995 54.4827 56.0363L51.1591 39.4196H51.8908L56.763 54.9864C56.9493 55.5827 56.7814 56.2285 56.3238 56.6756Z" fill="white"/>
<path d="M41.6187 36.2949C41.7284 36.1542 41.7679 35.9702 41.7242 35.7973L39.4017 26.5072C39.3577 26.3305 39.2341 26.1854 39.0674 26.1139L35.3548 24.5232V22.5831C35.3548 22.2621 35.0945 22.0024 34.7742 22.0024H28.9678C28.6472 22.0024 28.3872 22.2621 28.3872 22.5831V24.5232L24.6746 26.1139C24.5079 26.1854 24.3843 26.3305 24.3401 26.5072L22.0175 35.7973C21.9741 35.9708 22.0136 36.1542 22.1233 36.2949C22.233 36.4358 22.402 36.5183 22.5809 36.5183H25.484C25.74 36.5183 25.9666 36.3499 26.0403 36.1044L26.8602 33.3719L27.2276 38.8791C27.2475 39.1847 27.5012 39.4214 27.8066 39.4214H35.9354C36.2408 39.4214 36.4945 39.1847 36.5149 38.8791L36.8824 33.3719L37.7023 36.1044C37.7754 36.3499 38.002 36.5183 38.258 36.5183H41.1611C41.34 36.5183 41.509 36.4358 41.6187 36.2949ZM31.871 31.3079L29.7917 25.4862H33.9503L31.871 31.3079ZM29.5485 23.1637H34.1935V24.325H29.5485V23.1637ZM25.052 35.357H23.3245L25.397 27.068L25.7086 26.935L26.6209 30.1279L25.052 35.357ZM27.8054 30.093C27.8032 30.0525 27.7955 30.0117 27.7844 29.9723L26.7845 26.4729L28.6287 25.6824L31.2904 33.1351V38.2602H28.3501L27.8054 30.093ZM35.3919 38.2602H32.4516V33.1351L35.1132 25.6824L36.9572 26.4729L35.9575 29.9717L35.9655 29.974C35.9544 30.0128 35.9388 30.0508 35.9366 30.0925L35.3919 38.2602ZM38.69 35.357L37.1211 30.1273L38.0331 26.9344L38.345 27.068L40.4172 35.357H38.69Z" fill="white"/>
<path d="M35.9352 40.5809H27.8063C27.4856 40.5809 27.2256 40.8406 27.2256 41.1616V57.4193C27.2256 57.7405 27.4856 57.9999 27.8063 57.9999H30.1288C30.4143 57.9999 30.6578 57.7921 30.7024 57.51L31.8707 50.1104L33.0388 57.51C33.0836 57.7921 33.3268 57.9999 33.6126 57.9999H35.9352C36.2555 57.9999 36.5158 57.7405 36.5158 57.4193V41.1616C36.5158 40.8406 36.2555 40.5809 35.9352 40.5809ZM35.3545 56.8387H34.1085L32.4437 46.2968C32.3998 46.0145 32.1562 45.8066 31.8707 45.8066C31.5849 45.8066 31.3417 46.0145 31.2969 46.2968L29.633 56.8387H28.3869V41.7422H35.3545V56.8387Z" fill="white"/>
</svg>
