<svg width="80" height="80" viewBox="0 0 80 80" fill="none" xmlns="http://www.w3.org/2000/svg">
<circle cx="40" cy="40" r="40" fill="#05C0F4"/>
<g clip-path="url(#clip0)">
<path d="M57.7682 34.3364C57.5923 34.1636 57.3464 34.0816 57.1019 34.1143H47.5516V29.8944C47.5516 25.7239 44.1708 22.343 40.0002 22.343C35.8297 22.343 32.4489 25.7239 32.4489 29.8944V34.1143H22.8984C22.6319 34.1143 22.3654 34.1143 22.2321 34.3364C22.053 34.5085 21.97 34.7576 22.01 35.0027L25.3415 53.215C25.807 55.7555 28.0006 57.6145 30.5831 57.657H49.4172C52.0071 57.5933 54.1961 55.7196 54.6588 53.1706L57.9903 35.0027C58.0303 34.7576 57.9473 34.5085 57.7682 34.3364ZM34.2256 29.8944C34.2256 26.7052 36.8109 24.1198 40.0002 24.1198C43.1894 24.1198 45.7747 26.7052 45.7747 29.8944V34.1143H34.2256V29.8944ZM52.882 52.9484C52.5828 54.6319 51.127 55.8638 49.4172 55.8802H30.5831C28.8733 55.8638 27.4175 54.632 27.1184 52.9484L23.9645 35.8911H56.0358L52.882 52.9484Z" fill="white"/>
<path d="M46.6631 44.5535C47.1538 44.5535 47.5515 44.1557 47.5515 43.6651V40.9999C47.5515 40.5092 47.1538 40.1115 46.6631 40.1115C46.1725 40.1115 45.7747 40.5092 45.7747 40.9999V43.6651C45.7746 44.1557 46.1725 44.5535 46.6631 44.5535Z" fill="white"/>
<path d="M33.3373 44.5535C33.828 44.5535 34.2257 44.1557 34.2257 43.6651V40.9999C34.2257 40.5092 33.828 40.1115 33.3373 40.1115C32.8467 40.1115 32.4489 40.5092 32.4489 40.9999V43.6651C32.4489 44.1557 32.8467 44.5535 33.3373 44.5535Z" fill="white"/>
</g>
<defs>
<clipPath id="clip0">
<rect width="36" height="36" fill="white" transform="translate(22 22)"/>
</clipPath>
</defs>
</svg>
