<svg width="80" height="80" viewBox="0 0 80 80" fill="none" xmlns="http://www.w3.org/2000/svg">
<circle cx="40" cy="40" r="40" fill="#05C0F4"/>
<path d="M45.7042 24.9427C45.3022 22.1251 42.8496 20 39.9996 20C38.1667 20 36.4259 20.8845 35.3436 22.3668C35.1226 22.6691 35.1887 23.0931 35.491 23.3142C35.7923 23.5345 36.2174 23.4691 36.4381 23.1664C37.2665 22.0329 38.5977 21.356 39.9994 21.356C42.179 21.356 44.0542 22.9803 44.3617 25.134C44.4102 25.4722 44.7004 25.7164 45.0323 25.7164C45.0638 25.7164 45.0964 25.714 45.1288 25.7096C45.4994 25.6566 45.757 25.3132 45.7042 24.9427Z" fill="white"/>
<path d="M55.4962 32.5323L53.4623 29.1424C53.3399 28.938 53.1193 28.8133 52.8809 28.8133H50.9318C50.5576 28.8133 50.2539 29.117 50.2539 29.4912C50.2539 29.8654 50.5576 30.1691 50.9318 30.1691H52.4972L53.7175 32.203H26.2816L27.5019 30.1691H28.2199C28.5941 30.1691 28.8978 29.8654 28.8978 29.4912C28.8978 29.117 28.5941 28.8133 28.2199 28.8133H27.1182C26.8798 28.8133 26.6592 28.938 26.5368 29.1424L24.5029 32.5323C24.3772 32.742 24.3742 33.0028 24.4944 33.2154C24.6145 33.4279 24.8398 33.5594 25.0843 33.5594H54.9148C55.1593 33.5594 55.3843 33.4279 55.5047 33.2154C55.6251 33.0028 55.6219 32.7417 55.4962 32.5323Z" fill="white"/>
<path d="M52.1169 26.2811C52.022 26.1279 51.8704 26.0193 51.6952 25.9784L42.4531 23.8168C42.2781 23.7756 42.0938 23.8062 41.9409 23.9008C41.7883 23.9957 41.6795 24.1473 41.6386 24.3225L40.9416 27.3018C40.8562 27.6663 41.0826 28.0309 41.4473 28.1159C41.8118 28.2014 42.1768 27.9749 42.2618 27.6102L42.8045 25.2913L50.7261 27.1443L49.4814 32.4664C49.396 32.8308 49.6224 33.1955 49.9871 33.2805C50.0393 33.2926 50.0912 33.2984 50.1424 33.2984C50.4503 33.2984 50.7289 33.0875 50.8014 32.775L52.2007 26.7929C52.242 26.6179 52.2118 26.4336 52.1169 26.2811Z" fill="white"/>
<path d="M40.3582 27.8834L39.7405 22.6587C39.7194 22.4801 39.6283 22.317 39.4868 22.2058C39.3454 22.0946 39.1669 22.0437 38.9875 22.0648L27.6482 23.4051C27.2765 23.4492 27.0108 23.786 27.0547 24.1581L28.0845 32.8722C28.1254 33.2172 28.418 33.4709 28.7571 33.4709C28.7835 33.4709 28.8107 33.4691 28.8377 33.4661C29.2091 33.422 29.4749 33.0852 29.4312 32.7131L28.4808 24.6717L38.4737 23.4907L39.0115 28.0421C39.0556 28.4139 39.3909 28.6781 39.7645 28.636C40.1361 28.5923 40.4019 28.2552 40.3582 27.8834Z" fill="white"/>
<path d="M45.7199 32.6236L44.3742 27.0276C44.3321 26.8531 44.2223 26.7019 44.0692 26.608C43.916 26.5148 43.7323 26.4856 43.5565 26.5273L32.6349 29.1539C32.2708 29.2413 32.0467 29.6075 32.1341 29.9716L32.8067 32.7686C32.8941 33.1331 33.2603 33.3573 33.6242 33.2694C33.9883 33.182 34.2123 32.8157 34.1249 32.4516L33.6107 30.3137L43.2141 28.0045L44.4013 32.941C44.4757 33.2519 44.7538 33.4604 45.0599 33.4604C45.1125 33.4604 45.1657 33.4543 45.2192 33.4414C45.5833 33.3538 45.8073 32.9877 45.7199 32.6236Z" fill="white"/>
<path d="M55.5927 32.8464C55.574 32.4861 55.2765 32.2032 54.9154 32.2032H25.0849C24.7238 32.2032 24.4262 32.4859 24.4075 32.8464L23.0516 59.287C23.042 59.4725 23.1092 59.6541 23.2371 59.7887C23.3652 59.9232 23.5427 59.9997 23.7287 59.9997H56.271C56.4567 59.9997 56.6345 59.9234 56.7632 59.7887C56.8909 59.6541 56.958 59.4727 56.9487 59.287L55.5927 32.8464ZM24.4421 58.6437L25.7286 33.559H54.2709L55.5573 58.6437H24.4421Z" fill="white"/>
<path d="M45.0846 34.9153C43.963 34.9153 43.0507 35.8276 43.0507 36.9492C43.0507 38.0708 43.963 38.9831 45.0846 38.9831C46.2062 38.9831 47.1185 38.0708 47.1185 36.9492C47.1185 35.8276 46.2062 34.9153 45.0846 34.9153ZM45.0846 37.6273C44.7106 37.6273 44.4067 37.3232 44.4067 36.9494C44.4067 36.5756 44.7108 36.2715 45.0846 36.2715C45.4584 36.2715 45.7625 36.5756 45.7625 36.9494C45.7625 37.3232 45.4584 37.6273 45.0846 37.6273Z" fill="white"/>
<path d="M34.9149 34.9153C33.7933 34.9153 32.881 35.8276 32.881 36.9492C32.881 38.0708 33.7933 38.9831 34.9149 38.9831C36.0366 38.9831 36.9488 38.0708 36.9488 36.9492C36.9488 35.8276 36.0366 34.9153 34.9149 34.9153ZM34.9149 37.6273C34.5411 37.6273 34.237 37.3232 34.237 36.9494C34.237 36.5756 34.5411 36.2715 34.9149 36.2715C35.2887 36.2715 35.5928 36.5756 35.5928 36.9494C35.5928 37.3232 35.2887 37.6273 34.9149 37.6273Z" fill="white"/>
<path d="M45.0843 36.9491H45.0321C44.6579 36.9491 44.3542 37.2528 44.3542 37.627C44.3542 37.7196 44.3724 37.8079 44.4064 37.8884V41.3557C44.4064 43.7855 42.4295 45.7626 39.9996 45.7626C37.5696 45.7626 35.5927 43.7857 35.5927 41.3557V37.6272C35.5927 37.253 35.289 36.9493 34.9148 36.9493C34.5406 36.9493 34.2369 37.253 34.2369 37.6272V41.3559C34.2369 44.5335 36.822 47.1186 39.9996 47.1186C43.1771 47.1186 45.7622 44.5335 45.7622 41.3559V37.6272C45.7622 37.253 45.4585 36.9491 45.0843 36.9491Z" fill="white"/>
</svg>
