<svg width="80" height="80" viewBox="0 0 80 80" fill="none" xmlns="http://www.w3.org/2000/svg">
<circle cx="40" cy="40" r="40" fill="#05C0F4"/>
<path d="M33.8811 48.0629C33.6896 47.8713 33.4622 47.7194 33.2119 47.6157C32.9617 47.512 32.6935 47.4587 32.4226 47.4587C32.1517 47.4587 31.8835 47.512 31.6332 47.6157C31.383 47.7194 31.1556 47.8713 30.964 48.0629L29.9919 49.035C29.9281 49.0989 29.8522 49.1496 29.7688 49.1842C29.6853 49.2188 29.5959 49.2366 29.5055 49.2366C29.4152 49.2366 29.3257 49.2188 29.2422 49.1842C29.1588 49.1496 29.083 49.0989 29.0191 49.035L28.047 48.0629C27.9831 47.999 27.9324 47.9232 27.8978 47.8398C27.8632 47.7563 27.8453 47.6668 27.8453 47.5765C27.8453 47.4861 27.8632 47.3967 27.8978 47.3132C27.9324 47.2297 27.9831 47.1539 28.047 47.0901L29.9912 45.1458C30.1165 45.0162 30.1858 44.8425 30.1842 44.6622C30.1826 44.482 30.1103 44.3095 29.9829 44.1821C29.8554 44.0546 29.683 43.9823 29.5027 43.9807C29.3224 43.9792 29.1488 44.0485 29.0191 44.1737L27.0749 46.1186C26.8833 46.3102 26.7313 46.5375 26.6277 46.7878C26.524 47.0381 26.4706 47.3063 26.4706 47.5772C26.4706 47.8481 26.524 48.1163 26.6277 48.3665C26.7313 48.6168 26.8833 48.8442 27.0749 49.0357L28.047 50.0078C28.2385 50.1994 28.4659 50.3513 28.7161 50.455C28.9664 50.5587 29.2346 50.612 29.5055 50.612C29.7764 50.612 30.0446 50.5587 30.2949 50.455C30.5451 50.3513 30.7725 50.1994 30.964 50.0078L31.9362 49.0357C32 48.9718 32.0758 48.9211 32.1593 48.8865C32.2428 48.8519 32.3322 48.8341 32.4226 48.8341C32.5129 48.8341 32.6024 48.8519 32.6858 48.8865C32.7693 48.9211 32.8451 48.9718 32.909 49.0357L33.8811 50.0071C33.945 50.071 33.9957 50.1468 34.0303 50.2303C34.0649 50.3137 34.0827 50.4032 34.0827 50.4935C34.0827 50.5839 34.0649 50.6734 34.0303 50.7568C33.9957 50.8403 33.945 50.9161 33.8811 50.98L31.9369 52.9249C31.8712 52.9883 31.8188 53.0642 31.7828 53.148C31.7468 53.2319 31.7278 53.3221 31.727 53.4134C31.7262 53.5047 31.7436 53.5952 31.7782 53.6797C31.8127 53.7642 31.8638 53.841 31.9283 53.9055C31.9929 53.9701 32.0696 54.0211 32.1541 54.0557C32.2386 54.0903 32.3292 54.1077 32.4204 54.1069C32.5117 54.1061 32.6019 54.0871 32.6858 54.0511C32.7697 54.0151 32.8456 53.9627 32.909 53.897L34.8539 51.9528C35.0455 51.7612 35.1974 51.5339 35.3011 51.2836C35.4048 51.0333 35.4581 50.7651 35.4581 50.4942C35.4581 50.2234 35.4048 49.9551 35.3011 49.7049C35.1974 49.4546 35.0455 49.2272 34.8539 49.0357L33.8811 48.0629Z" fill="white"/>
<path d="M41.7291 43.8692L34.4368 39.4939C34.3054 39.4151 34.1514 39.3824 33.9994 39.4011C33.8473 39.4198 33.7058 39.4888 33.5974 39.597L32.6246 40.5699C32.5163 40.6783 32.4473 40.8198 32.4287 40.9718C32.41 41.1239 32.4426 41.2779 32.5214 41.4093L36.8967 48.7016C36.9432 48.779 37.0045 48.8465 37.0771 48.9003C37.1496 48.954 37.2321 48.9929 37.3197 49.0148C37.4073 49.0366 37.4984 49.041 37.5877 49.0277C37.6771 49.0144 37.7629 48.9836 37.8403 48.9371C37.9177 48.8906 37.9852 48.8293 38.0389 48.7567C38.0927 48.6841 38.1316 48.6017 38.1535 48.5141C38.1753 48.4264 38.1797 48.3354 38.1664 48.246C38.153 48.1567 38.1223 48.0709 38.0758 47.9935L36.8933 46.0231L39.0506 43.8657L41.021 45.0482C41.0984 45.0947 41.1842 45.1255 41.2736 45.1389C41.3629 45.1522 41.454 45.1478 41.5416 45.1259C41.6292 45.1041 41.7117 45.0651 41.7842 45.0114C41.8568 44.9577 41.9181 44.8902 41.9646 44.8128C42.0111 44.7353 42.0419 44.6495 42.0552 44.5602C42.0686 44.4709 42.0642 44.3798 42.0423 44.2922C42.0204 44.2046 41.9815 44.1221 41.9278 44.0495C41.8741 43.977 41.8066 43.9157 41.7291 43.8692ZM36.1638 44.8083L33.9762 41.1645L34.1893 40.9514L37.8331 43.139L36.1638 44.8083Z" fill="white"/>
<path d="M45.9516 38.9096L43.5206 41.3406L38.1732 35.9933C38.1098 35.9276 38.0339 35.8752 37.9501 35.8392C37.8662 35.8032 37.776 35.7842 37.6847 35.7834C37.5934 35.7826 37.5029 35.8 37.4184 35.8346C37.3339 35.8691 37.2571 35.9202 37.1926 35.9848C37.128 36.0493 37.077 36.1261 37.0424 36.2106C37.0078 36.295 36.9904 36.3856 36.9912 36.4769C36.992 36.5681 37.011 36.6584 37.047 36.7422C37.0831 36.8261 37.1354 36.902 37.2011 36.9654L43.0345 42.7988C43.1635 42.9277 43.3383 43.0001 43.5206 43.0001C43.7029 43.0001 43.8777 42.9277 44.0067 42.7988L46.9237 39.8818C47.049 39.7521 47.1182 39.5784 47.1167 39.3982C47.1151 39.2179 47.0428 39.0455 46.9153 38.918C46.7879 38.7906 46.6154 38.7182 46.4352 38.7167C46.2549 38.7151 46.0813 38.7844 45.9516 38.9096Z" fill="white"/>
<path d="M50.5282 34.3331L48.5833 36.2781L46.639 34.3331L47.6112 33.361C47.7364 33.2313 47.8057 33.0577 47.8041 32.8774C47.8026 32.6971 47.7303 32.5247 47.6028 32.3972C47.4753 32.2698 47.3029 32.1975 47.1226 32.1959C46.9424 32.1943 46.7687 32.2636 46.639 32.3889L45.6669 33.361L43.722 31.4167L45.6669 29.4718C45.7326 29.4084 45.785 29.3325 45.821 29.2486C45.857 29.1648 45.876 29.0746 45.8768 28.9833C45.8776 28.892 45.8602 28.8015 45.8256 28.717C45.791 28.6325 45.74 28.5557 45.6754 28.4912C45.6109 28.4266 45.5341 28.3756 45.4496 28.341C45.3651 28.3064 45.2746 28.289 45.1833 28.2898C45.092 28.2906 45.0018 28.3096 44.918 28.3456C44.8341 28.3816 44.7582 28.434 44.6948 28.4997L42.2638 30.9307C42.1349 31.0596 42.0625 31.2344 42.0625 31.4167C42.0625 31.599 42.1349 31.7739 42.2638 31.9028L48.0972 37.7362C48.2262 37.8651 48.401 37.9375 48.5833 37.9375C48.7656 37.9375 48.9404 37.8651 49.0694 37.7362L51.5004 35.3052C51.566 35.2418 51.6184 35.166 51.6544 35.0821C51.6905 34.9982 51.7094 34.908 51.7102 34.8167C51.711 34.7254 51.6936 34.6349 51.659 34.5504C51.6245 34.4659 51.5734 34.3891 51.5089 34.3246C51.4443 34.26 51.3676 34.209 51.2831 34.1744C51.1986 34.1399 51.1081 34.1225 51.0168 34.1233C50.9255 34.1241 50.8353 34.143 50.7514 34.179C50.6675 34.2151 50.5916 34.2675 50.5282 34.3331Z" fill="white"/>
<path d="M58.0544 30.1205L58.8189 25.1499C58.9001 24.6179 58.8553 24.0743 58.688 23.5628C58.5207 23.0513 58.2357 22.5862 57.8559 22.205C57.4761 21.8237 57.0121 21.537 56.5012 21.3679C55.9903 21.1987 55.4469 21.1519 54.9146 21.2311L44.3271 22.8124C43.0167 23.0106 41.8037 23.6219 40.8648 24.5573L20.2687 45.1458C19.6241 45.7905 19.2619 46.6648 19.2619 47.5765C19.2619 48.4881 19.6241 49.3625 20.2687 50.0071L29.9927 59.7311C30.6374 60.3758 31.5117 60.7379 32.4234 60.7379C33.335 60.7379 34.2094 60.3758 34.854 59.7311L46.129 48.4561C47.3081 54.2194 49.9604 57.8749 53.0625 57.8749C57.3029 57.8749 60.625 50.9311 60.625 42.0624C60.625 37.4231 59.6865 33.0967 58.0544 30.1205ZM33.8812 58.7576C33.4884 59.133 32.966 59.3424 32.4227 59.3424C31.8794 59.3424 31.357 59.133 30.9641 58.7576L21.2422 49.035C21.0506 48.8435 20.8987 48.6161 20.795 48.3658C20.6913 48.1156 20.638 47.8474 20.638 47.5765C20.638 47.3056 20.6913 47.0374 20.795 46.7871C20.8987 46.5369 21.0506 46.3095 21.2422 46.1179L41.8349 25.5253C42.5654 24.7982 43.5088 24.3231 44.5278 24.1688L55.1153 22.5876C55.2184 22.572 55.3225 22.5642 55.4268 22.5642C55.7242 22.5645 56.0181 22.6292 56.2882 22.7538C56.5583 22.8783 56.7983 23.0599 56.9917 23.2859C57.185 23.5119 57.3272 23.7771 57.4085 24.0632C57.4897 24.3494 57.5082 24.6497 57.4625 24.9436L56.9296 28.41C56.5413 27.9273 56.0913 27.4976 55.5911 27.1319C55.5864 26.4124 55.2978 25.7238 54.7881 25.2159C54.2639 24.7164 53.5676 24.4377 52.8435 24.4377C52.1194 24.4377 51.4231 24.7164 50.8989 25.2159C50.6183 25.4899 50.3996 25.8207 50.2574 26.1861C50.1152 26.5516 50.0528 26.9432 50.0744 27.3348C50.0959 27.7263 50.201 28.1088 50.3826 28.4564C50.5641 28.804 50.8178 29.1087 51.1268 29.3502C51.4358 29.5917 51.7929 29.7643 52.1741 29.8564C52.5552 29.9486 52.9517 29.9581 53.3369 29.8844C53.722 29.8107 54.087 29.6555 54.4072 29.4292C54.7275 29.2029 54.9956 28.9107 55.1937 28.5723C55.7598 29.0991 56.2431 29.7085 56.6271 30.3797L55.842 35.4837C55.6882 36.4961 55.2134 37.4323 54.4876 38.1546L33.8812 58.7576ZM53.0625 27.6249C53.3977 27.6271 53.7294 27.6939 54.0394 27.8215C53.9786 27.9348 53.9025 28.0391 53.8132 28.1316C53.6127 28.3371 53.3536 28.4757 53.0713 28.5284C52.789 28.581 52.4974 28.5451 52.2363 28.4256C51.9752 28.306 51.7574 28.1088 51.6128 27.8607C51.4681 27.6126 51.4037 27.326 51.4283 27.0399C51.4528 26.7538 51.5652 26.4823 51.7501 26.2625C51.9349 26.0428 52.1831 25.8855 52.4608 25.8123C52.7384 25.739 53.0319 25.7534 53.3011 25.8534C53.5703 25.9534 53.802 26.1341 53.9645 26.3709C53.6696 26.2952 53.3668 26.2546 53.0625 26.2499C52.8801 26.2499 52.7052 26.3223 52.5763 26.4513C52.4474 26.5802 52.375 26.7551 52.375 26.9374C52.375 27.1197 52.4474 27.2946 52.5763 27.4235C52.7052 27.5525 52.8801 27.6249 53.0625 27.6249ZM53.0625 56.4999C50.5778 56.4999 48.2383 52.7186 47.3115 47.2723L55.4563 39.1268C56.3903 38.1973 57.0006 36.9921 57.1971 35.6893L57.6783 32.5797C58.7653 35.6211 59.2976 38.8329 59.25 42.0624C59.25 49.8882 56.4161 56.4999 53.0625 56.4999Z" fill="white"/>
</svg>
