<svg width="117" height="28" viewBox="0 0 117 28" fill="none" xmlns="http://www.w3.org/2000/svg">
<path d="M51.426 6.26593V8.39335H45.3355V12.1385H51.2429V14.2659H45.3355V18.9197H51.426V21.0471H43V6.26593H51.426Z" fill="white"/>
<path d="M76.6279 21.3352L75.483 20.2271C74.2771 20.9658 72.8499 21.3352 71.2013 21.3352C68.9116 21.3352 67.0112 20.6113 65.5 19.1634C64.0041 17.7008 63.2561 15.8689 63.2561 13.6676C63.2561 11.4811 64.0117 9.65651 65.5229 8.19391C67.0341 6.7313 68.9269 6 71.2013 6C73.4757 6 75.3685 6.73869 76.8797 8.21607C78.3909 9.67867 79.1465 11.4958 79.1465 13.6676C79.1465 15.7359 78.4444 17.5014 77.04 18.964L79.5129 21.3352H76.6279ZM73.1246 15.1967L75.4601 17.4349C76.3607 16.4303 76.811 15.1745 76.811 13.6676C76.811 12.0277 76.2844 10.6907 75.2312 9.65651C74.1779 8.60757 72.8346 8.0831 71.2013 8.0831C69.568 8.0831 68.2247 8.60757 67.1715 9.65651C66.1182 10.6907 65.5916 12.0277 65.5916 13.6676C65.5916 15.3075 66.1182 16.6519 67.1715 17.7008C68.2247 18.735 69.568 19.2521 71.2013 19.2521C72.1935 19.2521 73.0712 19.06 73.8344 18.6759L70.2167 15.1967H73.1246Z" fill="white"/>
<path d="M89.6548 6.26593H92.1735L96.4323 16.5706L100.691 6.26593H103.21L96.4323 22L89.6548 6.26593Z" fill="white"/>
<path d="M114.665 6.26593H117V21.0471H114.665V6.26593Z" fill="white"/>
<circle cx="13.7617" cy="3.25944" r="3.25944" fill="#05C0F4"/>
<circle cx="13.7617" cy="24.2658" r="3.25944" fill="#05C0F4"/>
<circle cx="24.2642" cy="13.7609" r="3.25944" transform="rotate(90 24.2642 13.7609)" fill="#05C0F4"/>
<circle cx="3.25945" cy="13.7609" r="3.25944" transform="rotate(90 3.25945 13.7609)" fill="#05C0F4"/>
<ellipse cx="21.1877" cy="6.33488" rx="3.25944" ry="3.25944" transform="rotate(45 21.1877 6.33488)" fill="#05C0F4"/>
<ellipse cx="6.33417" cy="21.1901" rx="3.25944" ry="3.25944" transform="rotate(45 6.33417 21.1901)" fill="#05C0F4"/>
<ellipse cx="21.1879" cy="21.1895" rx="3.25944" ry="3.25944" transform="rotate(135 21.1879 21.1895)" fill="#05C0F4"/>
<ellipse cx="6.33534" cy="6.3352" rx="3.25944" ry="3.25944" transform="rotate(135 6.33534 6.3352)" fill="#05C0F4"/>
</svg>
