<svg width="221" height="52" viewBox="0 0 221 52" fill="none" xmlns="http://www.w3.org/2000/svg">
<path d="M97.1035 11.8889V15.8414H85.6452V22.7995H96.7589V26.752H85.6452V35.3981H97.1035V39.3506H81.2514V11.8889H97.1035Z" fill="white"/>
<path d="M144.516 39.8858L142.362 37.8272C140.094 39.1996 137.409 39.8858 134.307 39.8858C129.999 39.8858 126.424 38.5409 123.581 35.851C120.767 33.1336 119.36 29.7301 119.36 25.6403C119.36 21.578 120.781 18.1882 123.624 15.4708C126.467 12.7535 130.028 11.3948 134.307 11.3948C138.586 11.3948 142.147 12.7672 144.99 15.512C147.833 18.2294 149.255 21.6055 149.255 25.6403C149.255 29.483 147.934 32.7631 145.292 35.4804L149.944 39.8858H144.516ZM137.925 28.4812L142.319 32.6396C144.014 30.7731 144.861 28.44 144.861 25.6403C144.861 22.5936 143.87 20.1095 141.889 18.1882C139.907 16.2394 137.38 15.265 134.307 15.265C131.234 15.265 128.707 16.2394 126.726 18.1882C124.744 20.1095 123.753 22.5936 123.753 25.6403C123.753 28.6871 124.744 31.1848 126.726 33.1336C128.707 35.055 131.234 36.0157 134.307 36.0157C136.174 36.0157 137.825 35.6588 139.261 34.9452L132.455 28.4812H137.925Z" fill="white"/>
<path d="M169.024 11.8889H173.762L181.775 31.0339L189.787 11.8889H194.525L181.775 41.121L169.024 11.8889Z" fill="white"/>
<path d="M216.075 11.8889H220.469V39.3506H216.075V11.8889Z" fill="white"/>
<circle cx="25.8907" cy="6.13226" r="6.13226" fill="#05C0F4"/>
<circle cx="25.8907" cy="45.6537" r="6.13226" fill="#05C0F4"/>
<circle cx="45.6507" cy="25.8893" r="6.13226" transform="rotate(90 45.6507 25.8893)" fill="#05C0F4"/>
<circle cx="6.13227" cy="25.8893" r="6.13226" transform="rotate(90 6.13227 25.8893)" fill="#05C0F4"/>
<circle r="6.13226" transform="matrix(0.707104 0.70711 -0.707104 0.70711 39.8622 11.918)" fill="#05C0F4"/>
<circle r="6.13226" transform="matrix(0.707109 0.707105 -0.707109 0.707105 11.9176 39.8666)" fill="#05C0F4"/>
<circle r="6.13226" transform="matrix(-0.707104 0.70711 -0.707104 -0.70711 39.8631 39.8655)" fill="#05C0F4"/>
<circle r="6.13226" transform="matrix(-0.707104 0.70711 -0.707104 -0.70711 11.9193 11.9187)" fill="#05C0F4"/>
</svg>
