<svg width="30" height="30" viewBox="0 0 30 30" fill="none" xmlns="http://www.w3.org/2000/svg">
<circle cx="15" cy="15" r="15" fill="white"/>
<path d="M12.6283 9.2595C12.1757 9.00304 11.6444 9.00897 11.1947 9.26321L16.4648 14.248L18.2352 12.4327L12.6283 9.2595Z" fill="#1C1B20"/>
<path d="M10.6673 9.77258C10.5386 9.98828 10.4648 10.2351 10.4648 10.4968V19.4998C10.4648 19.7533 10.5321 19.9949 10.6535 20.2062L15.9533 14.7722L10.6673 9.77258Z" fill="#1C1B20"/>
<path d="M20.5826 13.7606L18.8939 12.8052L16.9962 14.7502L19.3219 16.9494L20.5833 16.2356C21.0374 15.9777 21.3092 15.5151 21.3092 14.9978C21.3085 14.4804 21.0374 14.0179 20.5826 13.7606Z" fill="#1C1B20"/>
<path d="M16.4851 15.2749L11.1709 20.7237C11.4015 20.8586 11.6545 20.9298 11.909 20.9298C12.1548 20.9298 12.402 20.866 12.6283 20.7378L18.6553 17.3274L16.4851 15.2749Z" fill="#1C1B20"/>
</svg>
