<svg width="30" height="30" viewBox="0 0 30 30" fill="none" xmlns="http://www.w3.org/2000/svg">
<circle cx="15" cy="15" r="15" fill="white"/>
<path d="M10.3046 12.2905C9.22813 14.1329 9.91243 16.9287 11.1028 18.624C11.697 19.4715 12.2985 20.2323 13.1225 20.2323C13.138 20.2323 13.1536 20.2319 13.1695 20.2313C13.5567 20.2161 13.8364 20.0985 14.1069 19.985C14.4106 19.8573 14.7246 19.7253 15.2172 19.7253C15.6858 19.7253 15.9849 19.853 16.2741 19.9765C16.5592 20.0981 16.8528 20.2239 17.2866 20.2159C18.2147 20.1989 18.7846 19.3779 19.2873 18.6537C19.8119 17.8976 20.0751 17.1634 20.1639 16.8828L20.1675 16.8717C20.1844 16.8218 20.1605 16.7674 20.1121 16.7454C20.1107 16.7448 20.1058 16.7428 20.1044 16.7422C19.941 16.6763 18.5073 16.049 18.4923 14.3393C18.4782 12.9503 19.5677 12.2147 19.7862 12.0813L19.7964 12.0751C19.8202 12.06 19.8367 12.0362 19.8422 12.0089C19.8479 11.9817 19.842 11.9534 19.8261 11.9305C19.0741 10.8451 17.9215 10.6815 17.4574 10.6618C17.3901 10.6552 17.3205 10.6519 17.2508 10.6519C16.7058 10.6519 16.1836 10.8549 15.7641 11.018C15.4746 11.1306 15.2245 11.2279 15.052 11.2279C14.8581 11.2279 14.6066 11.1294 14.3153 11.0155C13.9259 10.863 13.4844 10.6902 13.017 10.6902C13.0059 10.6902 12.9949 10.6904 12.9841 10.6906C11.8974 10.7063 10.8706 11.3195 10.3046 12.2905Z" fill="#1C1B20"/>
<path d="M17.4578 7.67464C16.7997 7.70108 16.0104 8.10059 15.5385 8.64566C15.1375 9.10381 14.7458 9.86768 14.849 10.6376C14.8555 10.6858 14.8952 10.723 14.9444 10.7267C14.9887 10.7301 15.0342 10.7319 15.0793 10.7319C15.7227 10.7319 16.4169 10.3808 16.8908 9.81551C17.3897 9.21856 17.642 8.45248 17.5657 7.76627C17.5598 7.71248 17.5118 7.67255 17.4578 7.67464Z" fill="#1C1B20"/>
</svg>
