<svg width="38" height="38" viewBox="0 0 38 38" fill="none" xmlns="http://www.w3.org/2000/svg">
<circle cx="19" cy="19" r="19" fill="#1C1B20"/>
<path d="M13.0524 15.5678C11.6889 17.9015 12.5557 21.4429 14.0635 23.5902C14.8161 24.6637 15.5781 25.6274 16.6217 25.6274C16.6414 25.6274 16.6611 25.627 16.6813 25.6262C17.1717 25.6069 17.526 25.458 17.8686 25.3141C18.2533 25.1524 18.6511 24.9853 19.275 24.9853C19.8686 24.9853 20.2474 25.147 20.6138 25.3034C20.9749 25.4574 21.3468 25.6168 21.8963 25.6066C23.0719 25.585 23.7937 24.5452 24.4305 23.6279C25.095 22.6701 25.4284 21.7401 25.5409 21.3847L25.5454 21.3706C25.5668 21.3074 25.5365 21.2385 25.4752 21.2107C25.4735 21.2099 25.4673 21.2074 25.4655 21.2066C25.2585 21.1231 23.4425 20.3286 23.4235 18.1629C23.4057 16.4035 24.7857 15.4718 25.0625 15.3029L25.0754 15.2949C25.1055 15.2759 25.1264 15.2457 25.1334 15.2112C25.1405 15.1767 25.1331 15.1408 25.113 15.1118C24.1605 13.7369 22.7005 13.5297 22.1127 13.5048C22.0274 13.4964 21.9393 13.4922 21.8509 13.4922C21.1606 13.4922 20.4992 13.7494 19.9678 13.956C19.601 14.0986 19.2843 14.2218 19.0658 14.2218C18.8202 14.2218 18.5016 14.0971 18.1327 13.9528C17.6394 13.7597 17.0802 13.5408 16.4882 13.5408C16.4741 13.5408 16.4601 13.541 16.4465 13.5412C15.07 13.5612 13.7694 14.3378 13.0524 15.5678Z" fill="white"/>
<path d="M22.1131 9.72129C21.2795 9.75478 20.2797 10.2608 19.682 10.9513C19.1741 11.5316 18.6779 12.4991 18.8087 13.4744C18.8169 13.5354 18.8672 13.5825 18.9294 13.5873C18.9857 13.5916 19.0432 13.5938 19.1003 13.5939C19.9154 13.5939 20.7946 13.1491 21.395 12.4331C22.0269 11.6769 22.3465 10.7066 22.2499 9.83736C22.2424 9.76923 22.1815 9.71865 22.1131 9.72129Z" fill="white"/>
</svg>
