<svg width="38" height="38" viewBox="0 0 38 38" fill="none" xmlns="http://www.w3.org/2000/svg">
<circle cx="19" cy="19" r="19" fill="#1C1B20"/>
<path d="M15.9961 11.7285C15.4228 11.4037 14.7498 11.4112 14.1802 11.7332L20.8557 18.0473L23.0982 15.7479L15.9961 11.7285Z" fill="white"/>
<path d="M13.512 12.3784C13.349 12.6516 13.2556 12.9643 13.2556 13.2957V24.6995C13.2556 25.0206 13.3408 25.3267 13.4946 25.5943L20.2076 18.7112L13.512 12.3784Z" fill="white"/>
<path d="M26.0713 17.4299L23.9322 16.2197L21.5285 18.6834L24.4743 21.4691L26.0722 20.5649C26.6473 20.2382 26.9916 19.6523 26.9916 18.997C26.9907 18.3416 26.6473 17.7558 26.0713 17.4299Z" fill="white"/>
<path d="M20.8812 19.3481L14.1499 26.25C14.442 26.4208 14.7625 26.511 15.0848 26.511C15.3962 26.511 15.7093 26.4302 15.9959 26.2678L23.6301 21.948L20.8812 19.3481Z" fill="white"/>
</svg>
